<svg width="14" height="14" viewBox="0 0 14 14" fill="none" xmlns="http://www.w3.org/2000/svg">
<path d="M12 8H13C13.1326 8 13.2598 7.94732 13.3536 7.85355C13.4473 7.75979 13.5 7.63261 13.5 7.5C13.5 7.36739 13.4473 7.24021 13.3536 7.14645C13.2598 7.05268 13.1326 7 13 7H12V6H13C13.1326 6 13.2598 5.94732 13.3536 5.85355C13.4473 5.75978 13.5 5.63261 13.5 5.5C13.5 5.36739 13.4473 5.24021 13.3536 5.14645C13.2598 5.05268 13.1326 5 13 5H11.975C11.8646 3.90259 11.3933 2.8728 10.635 2.07187L11.8538 0.85375C11.9002 0.807294 11.9371 0.752144 11.9622 0.691448C11.9873 0.630751 12.0003 0.565697 12.0003 0.5C12.0003 0.434302 11.9873 0.369248 11.9622 0.308551C11.9371 0.247855 11.9002 0.192705 11.8538 0.14625C11.8073 0.0997945 11.7521 0.0629442 11.6914 0.0378029C11.6308 0.0126616 11.5657 -0.000278474 11.5 -0.000278473C11.4343 -0.000278472 11.3692 0.0126615 11.3086 0.0378029C11.2479 0.0629442 11.1927 0.0997945 11.1462 0.14625L9.87813 1.415C9.03649 0.819637 8.03093 0.49993 7 0.49993C5.96907 0.49993 4.96351 0.819637 4.12187 1.415L2.85375 0.14625C2.75993 0.0524293 2.63268 -0.000278473 2.5 -0.000278473C2.36732 -0.000278473 2.24007 0.0524293 2.14625 0.14625C2.05243 0.24007 1.99972 0.367318 1.99972 0.5C1.99972 0.632682 2.05243 0.759929 2.14625 0.85375L3.365 2.07187C2.6067 2.8728 2.13544 3.90259 2.025 5H1C0.867392 5 0.740215 5.05268 0.646447 5.14645C0.552678 5.24021 0.5 5.36739 0.5 5.5C0.5 5.63261 0.552678 5.75978 0.646447 5.85355C0.740215 5.94732 0.867392 6 1 6H2V7H1C0.867392 7 0.740215 7.05268 0.646447 7.14645C0.552678 7.24021 0.5 7.36739 0.5 7.5C0.5 7.63261 0.552678 7.75979 0.646447 7.85355C0.740215 7.94732 0.867392 8 1 8H2V8.5C2 8.66875 2.00875 8.83562 2.025 9H1C0.867392 9 0.740215 9.05268 0.646447 9.14645C0.552678 9.24021 0.5 9.36739 0.5 9.5C0.5 9.63261 0.552678 9.75979 0.646447 9.85355C0.740215 9.94732 0.867392 10 1 10H2.23C2.54904 11.0152 3.18366 11.9021 4.04155 12.5318C4.89944 13.1614 5.93584 13.501 7 13.501C8.06416 13.501 9.10056 13.1614 9.95845 12.5318C10.8163 11.9021 11.451 11.0152 11.77 10H13C13.1326 10 13.2598 9.94732 13.3536 9.85355C13.4473 9.75979 13.5 9.63261 13.5 9.5C13.5 9.36739 13.4473 9.24021 13.3536 9.14645C13.2598 9.05268 13.1326 9 13 9H11.975C11.9913 8.83562 12 8.66875 12 8.5V8ZM7 1.5C7.97381 1.50121 8.91381 1.85724 9.64408 2.50146C10.3744 3.14568 10.8448 4.03394 10.9675 5H3.03C3.15271 4.03351 3.62356 3.14491 4.35435 2.50064C5.08515 1.85636 6.02576 1.5006 7 1.5ZM7.5 12.4675V7.5C7.5 7.36739 7.44732 7.24021 7.35355 7.14645C7.25979 7.05268 7.13261 7 7 7C6.86739 7 6.74021 7.05268 6.64645 7.14645C6.55268 7.24021 6.5 7.36739 6.5 7.5V12.4675C5.53394 12.3448 4.64568 11.8744 4.00146 11.1441C3.35724 10.4138 3.00121 9.47381 3 8.5V6H11V8.5C10.9988 9.47381 10.6428 10.4138 9.99854 11.1441C9.35432 11.8744 8.46606 12.3448 7.5 12.4675Z" fill="#1C1C1C"/>
</svg>
