<svg width="116" height="25" viewBox="0 0 116 25" fill="none" xmlns="http://www.w3.org/2000/svg">
<path d="M17.6438 19.7992L2.56377 9.48666C1.03559 8.44166 1.55507 6.26581 3.46067 5.75414L19.488 1.44164C19.8275 1.32019 20.1913 1.28077 20.5493 1.32664C20.9072 1.37252 21.249 1.50237 21.5462 1.70542C21.8434 1.90847 22.0875 2.17886 22.2581 2.49415C22.4288 2.80944 22.5211 3.16054 22.5275 3.51831L21.5777 18.1425C21.465 19.8783 19.1719 20.8442 17.6438 19.7992Z" fill="#E9327C"/>
<path d="M12.8609 22.345L3.97677 5.12086C3.77368 4.72683 3.68432 4.28484 3.71852 3.84364C3.75273 3.40245 3.90917 2.97919 4.1706 2.62055C4.43204 2.26191 4.7883 1.98181 5.20011 1.81114C5.61192 1.64048 6.06327 1.58588 6.50439 1.65337L22.9688 4.17253C23.3479 4.23054 23.7076 4.37691 24.0186 4.59962C24.3294 4.82234 24.5825 5.11502 24.7571 5.45361C24.9316 5.7922 25.0226 6.16703 25.0225 6.54728C25.0225 6.92752 24.9313 7.30233 24.7568 7.64086L17.1722 22.3458C16.9685 22.7387 16.6595 23.0684 16.2792 23.2985C15.8988 23.5287 15.4619 23.6503 15.0163 23.6502C14.5707 23.6502 14.1338 23.5283 13.7535 23.2981C13.3732 23.0677 13.0644 22.738 12.8609 22.345Z" fill="#1DACE3"/>
<path d="M22.4872 4.09835L14.2798 2.84251L4.2029 5.55501L8.22507 13.3558L17.6438 19.7992C17.8516 19.9398 18.0801 20.0474 18.3213 20.1183L21.8988 13.1825L22.4872 4.09835Z" fill="#001A49"/>
<path d="M64.0597 6.11168C64.0597 5.80924 64.1502 5.5136 64.3196 5.26213C64.4892 5.01066 64.7301 4.81466 65.0119 4.69892C65.2938 4.58318 65.6039 4.5529 65.9031 4.6119C66.2023 4.67091 66.4772 4.81655 66.6929 5.0304C66.9086 5.24426 67.0555 5.51673 67.115 5.81336C67.1745 6.10999 67.144 6.41746 67.0272 6.69688C66.9105 6.97629 66.7128 7.21512 66.4592 7.38314C66.2055 7.55117 65.9072 7.64085 65.6022 7.64085C65.1944 7.63673 64.8045 7.4743 64.5161 7.18842C64.2278 6.90253 64.0639 6.51597 64.0597 6.11168ZM64.317 8.38833H66.8883V16.8833H64.317V8.38833Z" fill="#001A49"/>
<path d="M77.9923 12.6358C78.0222 13.1973 77.9397 13.7592 77.7498 14.289C77.5599 14.8187 77.2662 15.3062 76.8856 15.7231C76.505 16.1399 76.0451 16.4781 75.5321 16.7182C75.0192 16.9582 74.4635 17.0953 73.897 17.1217C73.4204 17.1473 72.9441 17.0677 72.5024 16.8884C72.0607 16.7091 71.6648 16.4347 71.3433 16.085V20.2817H68.7728V8.38833H71.3433V9.18666C71.6649 8.83708 72.0608 8.56283 72.5025 8.38366C72.9442 8.20454 73.4205 8.12499 73.897 8.15081C74.4635 8.17706 75.0191 8.31409 75.5321 8.554C76.045 8.794 76.5049 9.13208 76.8856 9.54891C77.2662 9.96575 77.5599 10.453 77.7498 10.9828C77.9397 11.5126 78.0222 12.0743 77.9923 12.6358ZM75.4218 12.6358C75.4117 12.2381 75.2835 11.8522 75.0533 11.5262C74.823 11.2004 74.5009 10.9491 74.1274 10.8038C73.7537 10.6585 73.3452 10.6257 72.9529 10.7095C72.5606 10.7932 72.2018 10.9898 71.9217 11.2747C71.6415 11.5595 71.4523 11.92 71.3777 12.3109C71.3032 12.7018 71.3466 13.1059 71.5026 13.4725C71.6585 13.8391 71.92 14.1519 72.2544 14.3719C72.5889 14.5919 72.9812 14.7092 73.3825 14.7092C73.6581 14.7215 73.9332 14.6758 74.1897 14.5753C74.4463 14.4747 74.6784 14.3215 74.871 14.1257C75.0636 13.9299 75.2122 13.696 75.3072 13.4392C75.4021 13.1824 75.4412 12.9086 75.4218 12.6358Z" fill="#001A49"/>
<path d="M85.9266 14.3333C85.9266 16.2875 84.2126 17.12 82.3618 17.12C81.6141 17.1871 80.8632 17.0302 80.2064 16.6696C79.5495 16.3091 79.017 15.7614 78.6775 15.0975L80.905 13.8408C80.9957 14.1477 81.1897 14.4145 81.4549 14.5965C81.72 14.7785 82.0402 14.8647 82.3618 14.8408C82.9788 14.8408 83.2864 14.6533 83.2864 14.3142C83.2864 13.3792 79.0709 13.8725 79.0709 10.9325C79.0709 9.08083 80.647 8.14667 82.4332 8.14667C83.1032 8.12582 83.7665 8.28342 84.3539 8.60308C84.9423 8.92275 85.4323 9.39275 85.7744 9.96417L83.5814 11.1367C83.4855 10.9137 83.3255 10.7236 83.1213 10.5902C82.9171 10.4568 82.6777 10.3861 82.4332 10.3867C81.9877 10.3867 81.7137 10.5533 81.7137 10.8625C81.7112 11.8375 85.9266 11.1917 85.9266 14.3333Z" fill="#001A49"/>
<path d="M95.3217 8.38834V16.8833H92.7512V16.0833C92.4545 16.4358 92.0771 16.7134 91.6509 16.8937C91.2256 17.0738 90.7624 17.1514 90.3001 17.12C88.5694 17.12 87.0958 15.8967 87.0958 13.6025V8.38834H89.6663V13.2308C89.6445 13.4333 89.668 13.6381 89.7344 13.8308C89.8008 14.0234 89.9084 14.1995 90.0505 14.3467C90.1925 14.4938 90.3648 14.6085 90.5557 14.6828C90.7473 14.7571 90.9524 14.7891 91.1575 14.7767C92.0998 14.7767 92.7546 14.2333 92.7546 13.0267V8.38834H95.3217Z" fill="#001A49"/>
<path d="M110.055 11.6667V16.8833H107.485V11.8883C107.485 11.0392 107.073 10.495 106.251 10.495C105.394 10.495 104.914 11.09 104.914 12.0925V16.8833H102.343V11.8883C102.343 11.0392 101.932 10.495 101.109 10.495C100.253 10.495 99.7726 11.09 99.7726 12.0925V16.8833H97.2021V8.38834H99.7768V9.16667C100.043 8.82009 100.393 8.54525 100.794 8.36717C101.195 8.18917 101.635 8.11364 102.073 8.14751C102.513 8.12619 102.952 8.21822 103.345 8.41467C103.738 8.61109 104.074 8.90517 104.318 9.26834C104.603 8.88842 104.981 8.58625 105.415 8.39025C105.85 8.19421 106.328 8.1107 106.804 8.14751C108.771 8.15085 110.055 9.54334 110.055 11.6667Z" fill="#001A49"/>
<path d="M112.233 8.33583C113.287 8.33583 114.141 7.48891 114.141 6.44417C114.141 5.39944 113.287 4.55251 112.233 4.55251C111.179 4.55251 110.325 5.39944 110.325 6.44417C110.325 7.48891 111.179 8.33583 112.233 8.33583Z" fill="#001A49"/>
<path d="M28.9639 4.48079H31.5352V16.8833H28.9639V4.48079ZM32.9911 12.6358C32.9883 11.7452 33.2521 10.8737 33.7491 10.1319C34.2461 9.39 34.9541 8.811 35.7832 8.46825C36.6125 8.12548 37.5255 8.03434 38.407 8.20637C39.2884 8.37841 40.0986 8.80583 40.7348 9.43466C41.3711 10.0634 41.8048 10.8652 41.9811 11.7385C42.1573 12.6118 42.0683 13.5173 41.7252 14.3404C41.3821 15.1635 40.8003 15.8672 40.0535 16.3622C39.3068 16.8573 38.4286 17.1217 37.5302 17.1217C36.9336 17.1279 36.3416 17.0163 35.7889 16.7933C35.2363 16.5703 34.734 16.2403 34.3115 15.8227C33.8888 15.4051 33.5544 14.9082 33.3277 14.361C33.101 13.8138 32.9866 13.2273 32.9911 12.6358ZM39.5039 12.6358C39.4938 12.2516 39.3697 11.8789 39.1471 11.5643C38.9245 11.2497 38.6132 11.0072 38.2523 10.867C37.8912 10.7269 37.4967 10.6953 37.1177 10.7764C36.7388 10.8574 36.3924 11.0475 36.1218 11.3227C35.8512 11.5979 35.6686 11.9461 35.5965 12.3237C35.5246 12.7013 35.5664 13.0916 35.7171 13.4457C35.8676 13.7998 36.1202 14.1021 36.4432 14.3147C36.7661 14.5272 37.1451 14.6407 37.5327 14.6408C37.7982 14.6483 38.0624 14.6012 38.3085 14.5024C38.5547 14.4037 38.7775 14.2555 38.9631 14.0671C39.1486 13.8787 39.2927 13.6543 39.3864 13.408C39.48 13.1616 39.5212 12.8987 39.5072 12.6358H39.5039ZM52.3219 8.38583V16.4567C52.3219 19.3108 50.0767 20.5167 47.7979 20.5167C46.9958 20.5767 46.1925 20.4166 45.4759 20.0539C44.7595 19.6913 44.1576 19.1401 43.7362 18.4608L45.9293 17.2033C46.1063 17.5578 46.3883 17.8503 46.7376 18.0417C47.0868 18.2331 47.4866 18.3142 47.8836 18.2742C48.1371 18.3084 48.3949 18.2859 48.6384 18.2082C48.8818 18.1304 49.1045 17.9996 49.2901 17.8251C49.4756 17.6507 49.6192 17.4372 49.7105 17.2002C49.8017 16.9634 49.8381 16.7092 49.817 16.4567V15.675C49.5159 16.04 49.1326 16.33 48.6981 16.5217C48.2636 16.7135 47.7897 16.8017 47.3145 16.7792C46.1835 16.7442 45.1105 16.2743 44.3229 15.4688C43.5353 14.6633 43.0948 13.5856 43.0948 12.4637C43.0948 11.3418 43.5353 10.2641 44.3229 9.45858C45.1105 8.65308 46.1835 8.18314 47.3145 8.14829C47.7897 8.12576 48.2636 8.21389 48.6981 8.40566C49.1326 8.59741 49.5159 8.88741 49.817 9.2525V8.38583H52.3219ZM49.8203 12.4633C49.8373 12.053 49.73 11.6471 49.5124 11.2977C49.2948 10.9482 48.9767 10.6713 48.599 10.5026C48.2214 10.3338 47.8015 10.2809 47.3933 10.3507C46.9851 10.4204 46.6073 10.6096 46.3084 10.8939C46.0095 11.1782 45.8032 11.5447 45.7161 11.9461C45.6289 12.3476 45.6649 12.7657 45.8194 13.1467C45.9738 13.5277 46.2398 13.8542 46.5829 14.0842C46.926 14.3142 47.3308 14.4372 47.7449 14.4375C48.015 14.4562 48.2861 14.4188 48.5407 14.3276C48.7953 14.2363 49.0278 14.0932 49.2233 13.9075C49.4188 13.7218 49.5729 13.4976 49.6757 13.2493C49.7785 13.001 49.8278 12.7341 49.8203 12.4658V12.4633ZM53.7778 12.63C53.775 11.7393 54.0388 10.8679 54.5358 10.1261C55.0328 9.38416 55.7408 8.80516 56.5699 8.46241C57.3991 8.11965 58.3122 8.02851 59.1937 8.20054C60.0751 8.37258 60.8852 8.8 61.5215 9.42883C62.1578 10.0576 62.5915 10.8593 62.7678 11.7327C62.944 12.606 62.855 13.5115 62.5119 14.3346C62.1688 15.1577 61.587 15.8613 60.8402 16.3564C60.0935 16.8515 59.2153 17.1158 58.3169 17.1158C57.7208 17.1221 57.1293 17.0107 56.5771 16.788C56.0248 16.5654 55.5227 16.2359 55.1002 15.8189C54.6777 15.4019 54.3432 14.9057 54.1162 14.3592C53.8891 13.8127 53.7741 13.2268 53.7778 12.6358V12.63ZM60.2906 12.63C60.2807 12.2456 60.1566 11.8726 59.934 11.5577C59.7113 11.2428 59.3999 11.0001 59.0388 10.8597C58.6776 10.7194 58.2828 10.6878 57.9036 10.7689C57.5244 10.8499 57.1777 11.0401 56.9071 11.3154C56.6363 11.5908 56.4535 11.9392 56.3815 12.3171C56.3095 12.6949 56.3515 13.0855 56.5023 13.4397C56.6531 13.7941 56.9058 14.0964 57.229 14.3091C57.5523 14.5217 57.9316 14.635 58.3194 14.635C58.5841 14.6419 58.8473 14.5947 59.0927 14.4961C59.338 14.3975 59.5602 14.2497 59.7453 14.062C59.9303 13.8743 60.0743 13.6507 60.1681 13.4053C60.262 13.1599 60.3037 12.8979 60.2906 12.6358V12.63Z" fill="#001A49"/>
</svg>
