<svg width="14" height="14" viewBox="0 0 14 14" fill="none" xmlns="http://www.w3.org/2000/svg">
<path d="M13.4325 12.25C12.4806 10.6044 11.0137 9.42437 9.30186 8.865C10.1486 8.36091 10.8065 7.5928 11.1745 6.67862C11.5425 5.76444 11.6002 4.75475 11.3388 3.8046C11.0774 2.85444 10.5113 2.01637 9.72747 1.41908C8.94366 0.821784 7.98544 0.498299 6.99999 0.498299C6.01453 0.498299 5.05632 0.821784 4.2725 1.41908C3.48869 2.01637 2.92261 2.85444 2.6612 3.8046C2.39979 4.75475 2.4575 5.76444 2.82548 6.67862C3.19345 7.5928 3.85134 8.36091 4.69811 8.865C2.98624 9.42375 1.51936 10.6037 0.567486 12.25C0.532579 12.3069 0.509426 12.3702 0.499392 12.4363C0.489358 12.5023 0.492646 12.5696 0.509064 12.6343C0.525481 12.6991 0.554695 12.7598 0.594981 12.8131C0.635267 12.8663 0.68581 12.911 0.743627 12.9444C0.801444 12.9778 0.865364 12.9992 0.931616 13.0075C0.997868 13.0158 1.06511 13.0108 1.12937 12.9926C1.19364 12.9745 1.25362 12.9437 1.30579 12.9021C1.35796 12.8604 1.40125 12.8087 1.43311 12.75C2.61061 10.715 4.69186 9.5 6.99999 9.5C9.30811 9.5 11.3894 10.715 12.5669 12.75C12.5987 12.8087 12.642 12.8604 12.6942 12.9021C12.7463 12.9437 12.8063 12.9745 12.8706 12.9926C12.9349 13.0108 13.0021 13.0158 13.0684 13.0075C13.1346 12.9992 13.1985 12.9778 13.2563 12.9444C13.3142 12.911 13.3647 12.8663 13.405 12.8131C13.4453 12.7598 13.4745 12.6991 13.4909 12.6343C13.5073 12.5696 13.5106 12.5023 13.5006 12.4363C13.4905 12.3702 13.4674 12.3069 13.4325 12.25ZM3.49999 5C3.49999 4.30776 3.70526 3.63108 4.08984 3.0555C4.47443 2.47993 5.02105 2.03133 5.66059 1.76642C6.30014 1.50151 7.00387 1.4322 7.6828 1.56725C8.36174 1.7023 8.98538 2.03564 9.47486 2.52513C9.96434 3.01461 10.2977 3.63825 10.4327 4.31718C10.5678 4.99612 10.4985 5.69985 10.2336 6.33939C9.96866 6.97893 9.52005 7.52556 8.94448 7.91014C8.36891 8.29473 7.69222 8.5 6.99999 8.5C6.07203 8.49901 5.18237 8.12994 4.52621 7.47378C3.87005 6.81761 3.50098 5.92795 3.49999 5Z" fill="#1C1C1C"/>
</svg>
