<svg width="16" height="12" viewBox="0 0 16 12" fill="none" xmlns="http://www.w3.org/2000/svg">
<path d="M7.99997 3.50001C7.50552 3.50001 7.02217 3.64663 6.61105 3.92133C6.19992 4.19604 5.87949 4.58648 5.69027 5.0433C5.50105 5.50011 5.45155 6.00278 5.54801 6.48773C5.64447 6.97269 5.88257 7.41814 6.23221 7.76777C6.58184 8.11741 7.02729 8.35551 7.51225 8.45197C7.9972 8.54843 8.49987 8.49893 8.95668 8.30971C9.4135 8.12049 9.80394 7.80006 10.0786 7.38893C10.3534 6.97781 10.5 6.49446 10.5 6.00001C10.5 5.33697 10.2366 4.70108 9.76774 4.23224C9.2989 3.7634 8.66301 3.50001 7.99997 3.50001ZM7.99997 7.50001C7.7033 7.50001 7.41329 7.41203 7.16662 7.24721C6.91994 7.08239 6.72768 6.84812 6.61415 6.57403C6.50062 6.29994 6.47092 5.99834 6.52879 5.70737C6.58667 5.4164 6.72953 5.14913 6.93931 4.93935C7.14909 4.72957 7.41637 4.58671 7.70734 4.52883C7.99831 4.47095 8.29991 4.50066 8.574 4.61419C8.84809 4.72772 9.08235 4.91998 9.24718 5.16665C9.412 5.41333 9.49997 5.70334 9.49997 6.00001C9.49997 6.39783 9.34194 6.77936 9.06063 7.06067C8.77933 7.34197 8.3978 7.50001 7.99997 7.50001ZM12.6068 7.94626C12.392 8.45412 12.0947 8.92295 11.7268 9.33376C11.6378 9.43013 11.5144 9.48763 11.3833 9.49384C11.2522 9.50005 11.1239 9.45447 11.0262 9.36694C10.9284 9.27942 10.8689 9.15696 10.8606 9.02599C10.8524 8.89502 10.8959 8.76604 10.9818 8.66688C11.6384 7.93385 12.0014 6.98438 12.0014 6.00032C12.0014 5.01626 11.6384 4.06679 10.9818 3.33376C10.9368 3.28504 10.902 3.22786 10.8792 3.16554C10.8565 3.10322 10.8465 3.037 10.8496 2.97074C10.8527 2.90449 10.869 2.83952 10.8975 2.77962C10.926 2.71972 10.9661 2.66609 11.0156 2.62185C11.065 2.57761 11.1227 2.54365 11.1854 2.52194C11.2481 2.50023 11.3144 2.49121 11.3806 2.4954C11.4468 2.49959 11.5115 2.51691 11.571 2.54635C11.6304 2.57579 11.6834 2.61676 11.7268 2.66688C12.3582 3.37334 12.776 4.2445 12.9318 5.17906C13.0876 6.11362 12.9749 7.07321 12.6068 7.94626ZM4.31247 4.44313C4.01746 5.14149 3.92698 5.9093 4.05158 6.6571C4.17617 7.40491 4.51072 8.10191 5.01622 8.66688C5.10218 8.76604 5.14571 8.89502 5.13742 9.02599C5.12913 9.15696 5.06968 9.27942 4.9719 9.36694C4.87412 9.45447 4.74585 9.50005 4.61477 9.49384C4.48368 9.48763 4.36029 9.43013 4.27122 9.33376C3.45034 8.41748 2.99641 7.23053 2.99641 6.00032C2.99641 4.77011 3.45034 3.58316 4.27122 2.66688C4.35966 2.56784 4.48381 2.50799 4.61638 2.50048C4.74894 2.49298 4.87906 2.53845 4.9781 2.62688C5.07714 2.71532 5.13699 2.83947 5.1445 2.97204C5.152 3.1046 5.10653 3.23472 5.0181 3.33376C4.7231 3.66194 4.48465 4.03683 4.31247 4.44313ZM15.5 6.00001C15.503 7.96359 14.7332 9.84949 13.3568 11.25C13.3113 11.2987 13.2565 11.3378 13.1956 11.365C13.1348 11.3922 13.0691 11.4069 13.0025 11.4083C12.9358 11.4098 12.8696 11.3979 12.8076 11.3733C12.7456 11.3488 12.6892 11.3121 12.6416 11.2654C12.594 11.2188 12.5562 11.163 12.5305 11.1016C12.5047 11.0401 12.4915 10.9741 12.4917 10.9074C12.4918 10.8407 12.5053 10.7748 12.5313 10.7134C12.5573 10.652 12.5953 10.5965 12.6431 10.55C13.8348 9.33586 14.5024 7.70253 14.5024 6.00126C14.5024 4.29998 13.8348 2.66666 12.6431 1.45251C12.5499 1.35786 12.4982 1.23008 12.4993 1.09728C12.5003 0.964481 12.5541 0.83754 12.6487 0.744382C12.7434 0.651225 12.8712 0.599482 13.004 0.600537C13.1367 0.601592 13.2637 0.655358 13.3568 0.750007C14.7332 2.15053 15.503 4.03642 15.5 6.00001ZM3.35685 10.5488C3.40289 10.5956 3.43926 10.6511 3.46386 10.712C3.48847 10.7729 3.50083 10.8381 3.50025 10.9038C3.49967 10.9695 3.48616 11.0344 3.46048 11.0949C3.4348 11.1554 3.39746 11.2102 3.3506 11.2563C3.30373 11.3023 3.24826 11.3387 3.18734 11.3633C3.12642 11.3879 3.06125 11.4002 2.99555 11.3997C2.92986 11.3991 2.86492 11.3856 2.80444 11.3599C2.74397 11.3342 2.68914 11.2969 2.6431 11.25C1.26696 9.84905 0.495911 7.96378 0.495911 6.00001C0.495911 4.03623 1.26696 2.15096 2.6431 0.750007C2.68863 0.701325 2.74344 0.662239 2.8043 0.635047C2.86516 0.607855 2.93084 0.593107 2.99748 0.591669C3.06412 0.590231 3.13038 0.602134 3.19235 0.626676C3.25433 0.651218 3.31077 0.687904 3.35836 0.734578C3.40595 0.781251 3.44373 0.836969 3.46947 0.898455C3.49522 0.959941 3.5084 1.02595 3.50826 1.09261C3.50812 1.15927 3.49465 1.22523 3.46865 1.2866C3.44265 1.34798 3.40463 1.40354 3.35685 1.45001C2.16514 2.66416 1.4975 4.29748 1.4975 5.99876C1.4975 7.70003 2.16514 9.33336 3.35685 10.5475V10.5488Z" fill="#1C1C1C"/>
</svg>
